<svg width="211" height="103" viewBox="0 0 211 103" fill="none" xmlns="http://www.w3.org/2000/svg">
<path d="M3.83523 91V56.0909H16.2784C18.9943 56.0909 21.2443 56.5852 23.0284 57.5739C24.8125 58.5625 26.1477 59.9148 27.0341 61.6307C27.9205 63.3352 28.3636 65.2557 28.3636 67.392C28.3636 69.5398 27.9148 71.4716 27.017 73.1875C26.1307 74.892 24.7898 76.2443 22.9943 77.2443C21.2102 78.233 18.9659 78.7273 16.2614 78.7273H7.70455V74.2614H15.7841C17.5 74.2614 18.892 73.9659 19.9602 73.375C21.0284 72.7727 21.8125 71.9545 22.3125 70.9205C22.8125 69.8864 23.0625 68.7102 23.0625 67.392C23.0625 66.0739 22.8125 64.9034 22.3125 63.8807C21.8125 62.858 21.0227 62.0568 19.9432 61.4773C18.875 60.8977 17.4659 60.608 15.7159 60.608H9.10227V91H3.83523ZM56.6052 91.5284C54.0257 91.5284 51.8041 90.9773 49.9405 89.875C48.0882 88.7614 46.6564 87.1989 45.645 85.1875C44.645 83.1648 44.145 80.7955 44.145 78.0795C44.145 75.3977 44.645 73.0341 45.645 70.9886C46.6564 68.9432 48.0655 67.3466 49.8723 66.1989C51.6905 65.0511 53.8155 64.4773 56.2473 64.4773C57.7245 64.4773 59.1564 64.7216 60.5427 65.2102C61.9291 65.6989 63.1734 66.4659 64.2757 67.5114C65.378 68.5568 66.2473 69.9148 66.8836 71.5852C67.52 73.2443 67.8382 75.2614 67.8382 77.6364V79.4432H47.0257V75.625H62.8439C62.8439 74.2841 62.5711 73.0966 62.0257 72.0625C61.4802 71.017 60.7132 70.1932 59.7245 69.5909C58.7473 68.9886 57.5995 68.6875 56.2814 68.6875C54.8495 68.6875 53.5995 69.0398 52.5314 69.7443C51.4745 70.4375 50.6564 71.3466 50.0768 72.4716C49.5086 73.5852 49.2245 74.7955 49.2245 76.1023V79.0852C49.2245 80.8352 49.5314 82.3239 50.145 83.5511C50.77 84.7784 51.6393 85.7159 52.753 86.3636C53.8666 87 55.1677 87.3182 56.6564 87.3182C57.6223 87.3182 58.503 87.1818 59.2984 86.9091C60.0939 86.625 60.7814 86.2045 61.3609 85.6477C61.9405 85.0909 62.3836 84.4034 62.6905 83.5852L67.5143 84.4545C67.128 85.875 66.4348 87.1193 65.4348 88.1875C64.4461 89.2443 63.2018 90.0682 61.7018 90.6591C60.2132 91.2386 58.5143 91.5284 56.6052 91.5284ZM88.4264 64.8182L94.2048 75.0114L100.034 64.8182H105.608L97.4434 77.9091L105.676 91H100.103L94.2048 81.2159L88.3241 91H82.7332L90.8809 77.9091L82.8355 64.8182H88.4264ZM129.934 91.5795C128.274 91.5795 126.774 91.2727 125.434 90.6591C124.093 90.0341 123.03 89.1307 122.246 87.9489C121.473 86.767 121.087 85.3182 121.087 83.6023C121.087 82.125 121.371 80.9091 121.939 79.9545C122.507 79 123.274 78.2443 124.24 77.6875C125.206 77.1307 126.286 76.7102 127.479 76.4261C128.672 76.142 129.888 75.9261 131.127 75.7784C132.695 75.5966 133.968 75.4489 134.945 75.3352C135.922 75.2102 136.632 75.0114 137.076 74.7386C137.519 74.4659 137.74 74.0227 137.74 73.4091V73.2898C137.74 71.8011 137.32 70.6477 136.479 69.8295C135.649 69.0114 134.411 68.6023 132.763 68.6023C131.047 68.6023 129.695 68.983 128.706 69.7443C127.729 70.4943 127.053 71.3295 126.678 72.25L121.888 71.1591C122.456 69.5682 123.286 68.2841 124.377 67.3068C125.479 66.3182 126.746 65.6023 128.178 65.1591C129.61 64.7045 131.115 64.4773 132.695 64.4773C133.74 64.4773 134.848 64.6023 136.019 64.8523C137.201 65.0909 138.303 65.5341 139.326 66.1818C140.36 66.8295 141.206 67.7557 141.865 68.9602C142.524 70.1534 142.854 71.7045 142.854 73.6136V91H137.877V87.4205H137.672C137.343 88.0795 136.848 88.7273 136.189 89.3636C135.53 90 134.684 90.5284 133.649 90.9489C132.615 91.3693 131.377 91.5795 129.934 91.5795ZM131.042 87.4886C132.451 87.4886 133.655 87.2102 134.655 86.6534C135.667 86.0966 136.434 85.3693 136.956 84.4716C137.49 83.5625 137.757 82.5909 137.757 81.5568V78.1818C137.576 78.3636 137.223 78.5341 136.701 78.6932C136.189 78.8409 135.604 78.9716 134.945 79.0852C134.286 79.1875 133.644 79.2841 133.019 79.375C132.394 79.4545 131.871 79.5227 131.451 79.5795C130.462 79.7045 129.559 79.9148 128.74 80.2102C127.934 80.5057 127.286 80.9318 126.797 81.4886C126.32 82.0341 126.081 82.7614 126.081 83.6705C126.081 84.9318 126.547 85.8864 127.479 86.5341C128.411 87.1705 129.598 87.4886 131.042 87.4886ZM161.162 100.818V64.8182H166.14V69.0625H166.566C166.861 68.517 167.287 67.8864 167.844 67.1705C168.401 66.4545 169.174 65.8295 170.162 65.2955C171.151 64.75 172.458 64.4773 174.083 64.4773C176.196 64.4773 178.083 65.0114 179.742 66.0795C181.401 67.1477 182.702 68.6875 183.645 70.6989C184.6 72.7102 185.077 75.1307 185.077 77.9602C185.077 80.7898 184.606 83.2159 183.662 85.2386C182.719 87.25 181.424 88.8011 179.776 89.892C178.128 90.9716 176.248 91.5114 174.134 91.5114C172.543 91.5114 171.242 91.2443 170.231 90.7102C169.231 90.1761 168.446 89.5511 167.878 88.8352C167.31 88.1193 166.873 87.483 166.566 86.9261H166.259V100.818H161.162ZM166.157 77.9091C166.157 79.75 166.424 81.3636 166.958 82.75C167.492 84.1364 168.265 85.2216 169.276 86.0057C170.287 86.7784 171.526 87.1648 172.992 87.1648C174.515 87.1648 175.787 86.7614 176.81 85.9545C177.833 85.1364 178.606 84.0284 179.128 82.6307C179.662 81.233 179.929 79.6591 179.929 77.9091C179.929 76.1818 179.668 74.6307 179.145 73.2557C178.634 71.8807 177.861 70.7955 176.827 70C175.804 69.2045 174.526 68.8068 172.992 68.8068C171.515 68.8068 170.265 69.1875 169.242 69.9489C168.231 70.7102 167.464 71.7727 166.941 73.1364C166.418 74.5 166.157 76.0909 166.157 77.9091ZM202.307 91V64.8182H207.404V91H202.307ZM204.881 60.7784C203.995 60.7784 203.234 60.483 202.597 59.892C201.972 59.2898 201.66 58.5739 201.66 57.7443C201.66 56.9034 201.972 56.1875 202.597 55.5966C203.234 54.9943 203.995 54.6932 204.881 54.6932C205.768 54.6932 206.523 54.9943 207.148 55.5966C207.785 56.1875 208.103 56.9034 208.103 57.7443C208.103 58.5739 207.785 59.2898 207.148 59.892C206.523 60.483 205.768 60.7784 204.881 60.7784Z" fill="#5013D2"/>
<path fill-rule="evenodd" clip-rule="evenodd" d="M53 49.5232C54.8203 21.8679 77.8286 0 105.945 0C134.06 0 157.069 21.8679 158.889 49.5232H150.244C148.441 26.6344 129.296 8.62233 105.945 8.62233C82.5926 8.62233 63.4476 26.6344 61.645 49.5232H53Z" fill="url(#paint0_linear_2_21)"/>
<path fill-rule="evenodd" clip-rule="evenodd" d="M58.5161 49.5964C60.1467 24.8224 80.7579 5.23285 105.945 5.23285C131.131 5.23285 151.742 24.8224 153.373 49.5964H145.629C144.014 29.0923 126.863 12.9568 105.944 12.9568C85.0255 12.9568 67.8752 29.0923 66.2604 49.5964H58.5161Z" fill="url(#paint1_linear_2_21)"/>
<defs>
<linearGradient id="paint0_linear_2_21" x1="105.945" y1="0" x2="105.945" y2="49.5232" gradientUnits="userSpaceOnUse">
<stop stop-color="#5013D2"/>
<stop offset="1" stop-color="#F091DB"/>
</linearGradient>
<linearGradient id="paint1_linear_2_21" x1="96.9381" y1="-20.9099" x2="105.945" y2="49.5964" gradientUnits="userSpaceOnUse">
<stop stop-color="#5013D2"/>
<stop offset="1" stop-color="#F091DB"/>
</linearGradient>
</defs>
</svg>
